<svg width="100" height="100" viewBox="0 0 100 100" fill="none" xmlns="http://www.w3.org/2000/svg">
  <defs>
    <linearGradient id="neuralGradient" x1="0%" y1="0%" x2="100%" y2="100%">
      <stop offset="0%" stop-color="#0EA5E9"/> <stop offset="100%" stop-color="#10B981"/> </linearGradient>
  </defs>

  <path 
    d="M40 10V30C40 35.5228 35.5228 40 30 40H10V60H30C35.5228 60 40 64.4772 40 70V90H60V70C60 64.4772 64.4772 60 70 60H90V40H70C64.4772 40 60 35.5228 60 30V10H40Z" 
    stroke="url(#neuralGradient)" 
    stroke-width="2.5" 
    stroke-linecap="round" 
    stroke-linejoin="round"
  />

  <circle cx="50" cy="25" r="3" fill="url(#neuralGradient)" /> <circle cx="50" cy="50" r="4" fill="url(#neuralGradient)" /> <circle cx="50" cy="75" r="3" fill="url(#neuralGradient)" /> <circle cx="25" cy="50" r="3" fill="url(#neuralGradient)" /> <circle cx="75" cy="50" r="3" fill="url(#neuralGradient)" /> <path 
    d="M30 50L38 50L42 42L48 58L52 50L60 50" 
    stroke="white" 
    stroke-width="2.5" 
    stroke-linecap="round" 
    stroke-linejoin="round"
    opacity="0.9"
  />
</svg>
